<svg width="100" height="100" viewBox="0 0 100 100" fill="none" xmlns="http://www.w3.org/2000/svg">
<rect width="100" height="100" rx="16" fill="#F6F7FC"/>
<path d="M50.5 28.5V43.5M58 36H43" stroke="#7D2262" stroke-width="2" stroke-linecap="round" stroke-linejoin="round"/>
<path d="M17.624 71.126C16.9707 71.126 16.392 71.042 15.888 70.874C15.3933 70.6967 14.978 70.44 14.642 70.104C14.306 69.7587 14.0493 69.334 13.872 68.83C13.704 68.3167 13.62 67.724 13.62 67.052V61.69C13.62 61.466 13.676 61.3027 13.788 61.2C13.9 61.088 14.0587 61.032 14.264 61.032C14.4787 61.032 14.642 61.088 14.754 61.2C14.866 61.3027 14.922 61.466 14.922 61.69V67.01C14.922 68.0087 15.1507 68.7553 15.608 69.25C16.0653 69.7353 16.7373 69.978 17.624 69.978C18.5107 69.978 19.1827 69.7353 19.64 69.25C20.0973 68.7553 20.326 68.0087 20.326 67.01V61.69C20.326 61.466 20.382 61.3027 20.494 61.2C20.606 61.088 20.7647 61.032 20.97 61.032C21.1753 61.032 21.334 61.088 21.446 61.2C21.558 61.3027 21.614 61.466 21.614 61.69V67.052C21.614 67.9387 21.46 68.6853 21.152 69.292C20.8533 69.8987 20.4053 70.356 19.808 70.664C19.22 70.972 18.492 71.126 17.624 71.126ZM24.3922 73.618C24.1962 73.618 24.0422 73.562 23.9302 73.45C23.8182 73.338 23.7622 73.1793 23.7622 72.974V64.728C23.7622 64.5133 23.8182 64.3547 23.9302 64.252C24.0422 64.14 24.1962 64.084 24.3922 64.084C24.5976 64.084 24.7516 64.14 24.8542 64.252C24.9662 64.3547 25.0222 64.5133 25.0222 64.728V66.002L24.8682 65.75C25.0176 65.2367 25.3116 64.826 25.7502 64.518C26.1889 64.21 26.7162 64.056 27.3322 64.056C27.9389 64.056 28.4662 64.2007 28.9142 64.49C29.3622 64.77 29.7122 65.176 29.9642 65.708C30.2162 66.2307 30.3422 66.856 30.3422 67.584C30.3422 68.3027 30.2162 68.9327 29.9642 69.474C29.7216 70.006 29.3716 70.4167 28.9142 70.706C28.4662 70.986 27.9389 71.126 27.3322 71.126C26.7256 71.126 26.2029 70.972 25.7642 70.664C25.3256 70.356 25.0316 69.95 24.8822 69.446H25.0362V72.974C25.0362 73.1793 24.9802 73.338 24.8682 73.45C24.7562 73.562 24.5976 73.618 24.3922 73.618ZM27.0382 70.118C27.4396 70.118 27.7896 70.02 28.0882 69.824C28.3962 69.628 28.6342 69.3433 28.8022 68.97C28.9702 68.5967 29.0542 68.1347 29.0542 67.584C29.0542 66.7627 28.8722 66.1373 28.5082 65.708C28.1442 65.2787 27.6542 65.064 27.0382 65.064C26.6276 65.064 26.2682 65.162 25.9602 65.358C25.6616 65.5447 25.4282 65.8247 25.2602 66.198C25.1016 66.5713 25.0222 67.0333 25.0222 67.584C25.0222 68.4053 25.2042 69.0353 25.5682 69.474C25.9322 69.9033 26.4222 70.118 27.0382 70.118ZM34.121 71.126C33.421 71.126 32.889 70.9207 32.525 70.51C32.161 70.09 31.979 69.488 31.979 68.704V61.676C31.979 61.4613 32.035 61.3027 32.147 61.2C32.259 61.088 32.413 61.032 32.609 61.032C32.8144 61.032 32.973 61.088 33.085 61.2C33.197 61.3027 33.253 61.4613 33.253 61.676V68.606C33.253 69.0913 33.351 69.4553 33.547 69.698C33.7524 69.9313 34.0417 70.048 34.415 70.048C34.499 70.048 34.5737 70.048 34.639 70.048C34.7044 70.0387 34.7697 70.0293 34.835 70.02C34.9377 70.0107 35.0124 70.0387 35.059 70.104C35.1057 70.1693 35.129 70.3 35.129 70.496C35.129 70.6733 35.087 70.8133 35.003 70.916C34.9284 71.0093 34.8024 71.07 34.625 71.098C34.541 71.1073 34.457 71.112 34.373 71.112C34.289 71.1213 34.205 71.126 34.121 71.126ZM39.0196 71.126C38.3476 71.126 37.7643 70.9813 37.2696 70.692C36.7749 70.4027 36.3923 69.992 36.1216 69.46C35.8509 68.928 35.7156 68.3027 35.7156 67.584C35.7156 67.0427 35.7903 66.5573 35.9396 66.128C36.0983 65.6893 36.3223 65.316 36.6116 65.008C36.9009 64.7 37.2463 64.4667 37.6476 64.308C38.0583 64.14 38.5156 64.056 39.0196 64.056C39.6916 64.056 40.2749 64.2007 40.7696 64.49C41.2643 64.7793 41.6469 65.19 41.9176 65.722C42.1883 66.2447 42.3236 66.8653 42.3236 67.584C42.3236 68.1253 42.2443 68.6153 42.0856 69.054C41.9363 69.4927 41.7169 69.866 41.4276 70.174C41.1383 70.482 40.7883 70.72 40.3776 70.888C39.9763 71.0467 39.5236 71.126 39.0196 71.126ZM39.0196 70.118C39.4303 70.118 39.7849 70.02 40.0836 69.824C40.3916 69.628 40.6249 69.3433 40.7836 68.97C40.9516 68.5967 41.0356 68.1347 41.0356 67.584C41.0356 66.7627 40.8536 66.1373 40.4896 65.708C40.1256 65.2787 39.6356 65.064 39.0196 65.064C38.6183 65.064 38.2636 65.162 37.9556 65.358C37.6569 65.5447 37.4236 65.8247 37.2556 66.198C37.0876 66.5713 37.0036 67.0333 37.0036 67.584C37.0036 68.4053 37.1856 69.0353 37.5496 69.474C37.9229 69.9033 38.4129 70.118 39.0196 70.118ZM46.1256 71.126C45.6589 71.126 45.2343 71.0327 44.8516 70.846C44.4783 70.6593 44.1843 70.4073 43.9696 70.09C43.7643 69.7727 43.6616 69.418 43.6616 69.026C43.6616 68.522 43.7876 68.1253 44.0396 67.836C44.2916 67.5467 44.7163 67.3413 45.3136 67.22C45.9109 67.0893 46.7136 67.024 47.7216 67.024H48.3796V67.836H47.7496C47.0309 67.836 46.4616 67.8687 46.0416 67.934C45.6309 67.9993 45.3416 68.116 45.1736 68.284C45.0056 68.4427 44.9216 68.6667 44.9216 68.956C44.9216 69.32 45.0476 69.6187 45.2996 69.852C45.5609 70.0853 45.9156 70.202 46.3636 70.202C46.7183 70.202 47.0309 70.118 47.3016 69.95C47.5723 69.7727 47.7869 69.5393 47.9456 69.25C48.1043 68.9513 48.1836 68.6107 48.1836 68.228V66.618C48.1836 66.0673 48.0716 65.6707 47.8476 65.428C47.6236 65.176 47.2456 65.05 46.7136 65.05C46.4056 65.05 46.0883 65.092 45.7616 65.176C45.4349 65.26 45.0943 65.3907 44.7396 65.568C44.5996 65.6333 44.4783 65.6567 44.3756 65.638C44.2729 65.61 44.1889 65.554 44.1236 65.47C44.0676 65.3767 44.0349 65.2787 44.0256 65.176C44.0256 65.064 44.0489 64.9567 44.0956 64.854C44.1516 64.7513 44.2449 64.6767 44.3756 64.63C44.7863 64.4247 45.1923 64.28 45.5936 64.196C46.0043 64.1027 46.3869 64.056 46.7416 64.056C47.3483 64.056 47.8476 64.154 48.2396 64.35C48.6316 64.5367 48.9256 64.8307 49.1216 65.232C49.3176 65.624 49.4156 66.128 49.4156 66.744V70.44C49.4156 70.6547 49.3643 70.818 49.2616 70.93C49.1589 71.042 49.0096 71.098 48.8136 71.098C48.6269 71.098 48.4776 71.042 48.3656 70.93C48.2629 70.818 48.2116 70.6547 48.2116 70.44V69.446H48.3376C48.2629 69.7913 48.1229 70.09 47.9176 70.342C47.7123 70.594 47.4556 70.79 47.1476 70.93C46.8489 71.0607 46.5083 71.126 46.1256 71.126ZM54.0244 71.126C53.4271 71.126 52.8998 70.986 52.4424 70.706C51.9944 70.4167 51.6444 70.006 51.3924 69.474C51.1404 68.9327 51.0144 68.3027 51.0144 67.584C51.0144 66.856 51.1358 66.2307 51.3784 65.708C51.6304 65.176 51.9804 64.77 52.4284 64.49C52.8858 64.2007 53.4178 64.056 54.0244 64.056C54.6311 64.056 55.1538 64.21 55.5924 64.518C56.0311 64.8167 56.3251 65.218 56.4744 65.722H56.3204V61.676C56.3204 61.4613 56.3718 61.3027 56.4744 61.2C56.5864 61.088 56.7451 61.032 56.9504 61.032C57.1558 61.032 57.3144 61.088 57.4264 61.2C57.5384 61.3027 57.5944 61.4613 57.5944 61.676V70.44C57.5944 70.6547 57.5384 70.818 57.4264 70.93C57.3144 71.042 57.1558 71.098 56.9504 71.098C56.7544 71.098 56.6004 71.042 56.4884 70.93C56.3764 70.818 56.3204 70.6547 56.3204 70.44V69.166L56.4744 69.418C56.3344 69.9407 56.0404 70.356 55.5924 70.664C55.1538 70.972 54.6311 71.126 54.0244 71.126ZM54.3184 70.118C54.7291 70.118 55.0838 70.02 55.3824 69.824C55.6904 69.628 55.9238 69.3433 56.0824 68.97C56.2504 68.5967 56.3344 68.1347 56.3344 67.584C56.3344 66.7627 56.1524 66.1373 55.7884 65.708C55.4244 65.2787 54.9344 65.064 54.3184 65.064C53.9171 65.064 53.5624 65.162 53.2544 65.358C52.9558 65.5447 52.7224 65.8247 52.5544 66.198C52.3864 66.5713 52.3024 67.0333 52.3024 67.584C52.3024 68.4053 52.4844 69.0353 52.8484 69.474C53.2218 69.9033 53.7118 70.118 54.3184 70.118ZM63.9176 71.07C63.7216 71.07 63.5676 71.0093 63.4556 70.888C63.3436 70.7667 63.2876 70.5987 63.2876 70.384V64.798C63.2876 64.574 63.3436 64.406 63.4556 64.294C63.5676 64.1727 63.7216 64.112 63.9176 64.112C64.123 64.112 64.2816 64.1727 64.3936 64.294C64.5056 64.406 64.5616 64.574 64.5616 64.798V70.384C64.5616 70.5987 64.5056 70.7667 64.3936 70.888C64.291 71.0093 64.1323 71.07 63.9176 71.07ZM63.9176 62.6C63.6656 62.6 63.465 62.5347 63.3156 62.404C63.1756 62.264 63.1056 62.082 63.1056 61.858C63.1056 61.6153 63.1756 61.4333 63.3156 61.312C63.465 61.1813 63.6656 61.116 63.9176 61.116C64.1883 61.116 64.389 61.1813 64.5196 61.312C64.6596 61.4333 64.7296 61.6153 64.7296 61.858C64.7296 62.082 64.6596 62.264 64.5196 62.404C64.389 62.5347 64.1883 62.6 63.9176 62.6ZM69.5639 71.126C68.8732 71.126 68.2759 70.9813 67.7719 70.692C67.2679 70.3933 66.8806 69.978 66.6099 69.446C66.3392 68.9047 66.2039 68.27 66.2039 67.542C66.2039 67.0007 66.2786 66.5153 66.4279 66.086C66.5866 65.6567 66.8106 65.2927 67.0999 64.994C67.3892 64.686 67.7392 64.4527 68.1499 64.294C68.5699 64.1353 69.0412 64.056 69.5639 64.056C69.8906 64.056 70.2359 64.1073 70.5999 64.21C70.9639 64.3127 71.2999 64.4807 71.6079 64.714C71.7106 64.7887 71.7759 64.8773 71.8039 64.98C71.8319 65.0733 71.8319 65.1713 71.8039 65.274C71.7852 65.3767 71.7386 65.4653 71.6639 65.54C71.5986 65.6053 71.5099 65.6427 71.3979 65.652C71.2952 65.6613 71.1832 65.6287 71.0619 65.554C70.8379 65.386 70.5999 65.2647 70.3479 65.19C70.1052 65.1153 69.8719 65.078 69.6479 65.078C69.3026 65.078 68.9946 65.134 68.7239 65.246C68.4626 65.358 68.2386 65.5213 68.0519 65.736C67.8746 65.9413 67.7392 66.198 67.6459 66.506C67.5526 66.8047 67.5059 67.1547 67.5059 67.556C67.5059 68.3493 67.6926 68.9747 68.0659 69.432C68.4392 69.88 68.9666 70.104 69.6479 70.104C69.8719 70.104 70.1052 70.0713 70.3479 70.006C70.5906 69.9313 70.8286 69.81 71.0619 69.642C71.1832 69.5673 71.2952 69.5393 71.3979 69.558C71.5006 69.5673 71.5846 69.6093 71.6499 69.684C71.7246 69.7493 71.7712 69.8333 71.7899 69.936C71.8086 70.0293 71.7992 70.1273 71.7619 70.23C71.7339 70.3327 71.6686 70.4167 71.5659 70.482C71.2672 70.706 70.9406 70.8693 70.5859 70.972C70.2312 71.0747 69.8906 71.126 69.5639 71.126ZM75.879 71.126C75.207 71.126 74.6237 70.9813 74.129 70.692C73.6343 70.4027 73.2517 69.992 72.981 69.46C72.7103 68.928 72.575 68.3027 72.575 67.584C72.575 67.0427 72.6497 66.5573 72.799 66.128C72.9577 65.6893 73.1817 65.316 73.471 65.008C73.7603 64.7 74.1057 64.4667 74.507 64.308C74.9177 64.14 75.375 64.056 75.879 64.056C76.551 64.056 77.1343 64.2007 77.629 64.49C78.1237 64.7793 78.5063 65.19 78.777 65.722C79.0477 66.2447 79.183 66.8653 79.183 67.584C79.183 68.1253 79.1037 68.6153 78.945 69.054C78.7957 69.4927 78.5763 69.866 78.287 70.174C77.9977 70.482 77.6477 70.72 77.237 70.888C76.8357 71.0467 76.383 71.126 75.879 71.126ZM75.879 70.118C76.2897 70.118 76.6443 70.02 76.943 69.824C77.251 69.628 77.4843 69.3433 77.643 68.97C77.811 68.5967 77.895 68.1347 77.895 67.584C77.895 66.7627 77.713 66.1373 77.349 65.708C76.985 65.2787 76.495 65.064 75.879 65.064C75.4777 65.064 75.123 65.162 74.815 65.358C74.5163 65.5447 74.283 65.8247 74.115 66.198C73.947 66.5713 73.863 67.0333 73.863 67.584C73.863 68.4053 74.045 69.0353 74.409 69.474C74.7823 69.9033 75.2723 70.118 75.879 70.118ZM81.445 71.098C81.249 71.098 81.095 71.042 80.983 70.93C80.871 70.818 80.815 70.6547 80.815 70.44V64.728C80.815 64.5133 80.871 64.3547 80.983 64.252C81.095 64.14 81.249 64.084 81.445 64.084C81.641 64.084 81.7903 64.14 81.893 64.252C82.005 64.3547 82.061 64.5133 82.061 64.728V65.876L81.907 65.666C82.103 65.134 82.4203 64.7327 82.859 64.462C83.307 64.1913 83.8156 64.056 84.385 64.056C84.9356 64.056 85.3883 64.154 85.743 64.35C86.0976 64.546 86.3636 64.8447 86.541 65.246C86.7183 65.6473 86.807 66.156 86.807 66.772V70.44C86.807 70.6547 86.751 70.818 86.639 70.93C86.5363 71.042 86.3823 71.098 86.177 71.098C85.9716 71.098 85.813 71.042 85.701 70.93C85.589 70.818 85.533 70.6547 85.533 70.44V66.842C85.533 66.2353 85.4163 65.792 85.183 65.512C84.9496 65.232 84.5763 65.092 84.063 65.092C83.4656 65.092 82.985 65.2787 82.621 65.652C82.2663 66.016 82.089 66.5107 82.089 67.136V70.44C82.089 70.8787 81.8743 71.098 81.445 71.098Z" fill="#7D2262"/>
</svg>
