<svg width="62" height="59" viewBox="0 0 62 59" fill="none" xmlns="http://www.w3.org/2000/svg">
<path d="M21.7323 40.3262L21.721 40.3194L21.6782 40.2969C20.7898 39.8135 19.9174 39.3015 19.0622 38.7615C17.0233 37.4786 15.0805 36.049 13.2493 34.484C9.10687 30.9112 4.50293 25.5508 4.50293 19.13C4.50313 17.0351 5.15277 14.9917 6.3624 13.2813C7.57204 11.5709 9.28217 10.2775 11.2573 9.5793C13.2325 8.88108 15.3755 8.81235 17.3914 9.38256C19.4072 9.95278 21.1967 11.1339 22.5135 12.7633C23.8302 11.1339 25.6197 9.95278 27.6355 9.38256C29.6514 8.81235 31.7944 8.88108 33.7696 9.5793C35.7447 10.2775 37.4549 11.5709 38.6645 13.2813C39.8741 14.9917 40.5238 17.0351 40.524 19.13C40.524 25.5508 35.9223 30.9112 31.7776 34.484C29.1759 36.707 26.3512 38.655 23.3487 40.2969L23.3059 40.3194L23.2947 40.3262H23.2902C23.051 40.4529 22.7844 40.5193 22.5137 40.5197C22.243 40.5201 21.9763 40.4544 21.7368 40.3284L21.7323 40.3262Z" fill="#FF1659"/>
<path fill-rule="evenodd" clip-rule="evenodd" d="M39.5525 21.6787C36.6649 21.6787 33.8956 22.8258 31.8537 24.8677C29.8118 26.9095 28.6647 29.6789 28.6647 32.5665C28.6647 35.4542 29.8118 38.2235 31.8537 40.2654C33.8956 42.3072 36.6649 43.4543 39.5525 43.4543C42.4402 43.4543 45.2095 42.3072 47.2514 40.2654C49.2933 38.2235 50.4404 35.4542 50.4404 32.5665C50.4404 29.6789 49.2933 26.9095 47.2514 24.8677C45.2095 22.8258 42.4402 21.6787 39.5525 21.6787ZM25.6953 32.5665C25.6955 30.3507 26.2271 28.1672 27.2454 26.1992C28.2637 24.2313 29.7392 22.5362 31.5479 21.2562C33.3567 19.9763 35.446 19.1487 37.6406 18.843C39.8353 18.5373 42.0712 18.7623 44.1609 19.4992C46.2507 20.2361 48.1332 21.4634 49.6506 23.0781C51.168 24.6928 52.2761 26.6479 52.8819 28.7793C53.4877 30.9107 53.5735 33.1564 53.1321 35.3278C52.6908 37.4992 51.7351 39.5331 50.3454 41.259L56.9335 47.8491C57.0794 47.985 57.1964 48.1489 57.2775 48.331C57.3587 48.5132 57.4023 48.7098 57.4058 48.9091C57.4093 49.1085 57.3726 49.3065 57.298 49.4913C57.2233 49.6762 57.1122 49.8442 56.9712 49.9851C56.8302 50.1261 56.6622 50.2373 56.4774 50.3119C56.2925 50.3866 56.0945 50.4233 55.8951 50.4198C55.6958 50.4163 55.4992 50.3726 55.3171 50.2915C55.1349 50.2103 54.971 50.0933 54.8351 49.9475L48.245 43.3593C46.2091 44.9992 43.7508 46.0297 41.1541 46.3318C38.5573 46.634 35.9281 46.1954 33.5701 45.0668C31.212 43.9382 29.2213 42.1655 27.8279 39.9536C26.4345 37.7417 25.6951 35.1808 25.6953 32.5665Z" fill="#95002B"/>
</svg>
