<svg width="41" height="24" viewBox="0 0 41 24" fill="none" xmlns="http://www.w3.org/2000/svg">
<path d="M16.9951 3.32324C18.169 2.99124 19.4172 3.0309 20.5674 3.4375C21.7176 3.84412 22.7135 4.59767 23.418 5.59375C24.1224 6.58985 24.5009 7.77997 24.501 9C24.501 12.6559 21.8931 15.6419 19.665 17.5625L19.6641 17.5645C18.2511 18.7717 16.7165 19.829 15.0859 20.7207L15.0791 20.7246L15.0625 20.7324L14.9561 20.7979H14.9219C14.7569 20.865 14.5803 20.9011 14.4014 20.9014C14.1759 20.9016 13.9535 20.8472 13.7539 20.7422V20.7412L13.7432 20.7363L13.7402 20.7344L13.7227 20.7246L13.7168 20.7217C13.2341 20.459 12.7596 20.1811 12.2949 19.8877C11.1876 19.191 10.1322 18.4144 9.1377 17.5645L9.13574 17.5625C6.90917 15.642 4.30078 12.6558 4.30078 9L4.30566 8.77148C4.34994 7.63189 4.72339 6.52755 5.38379 5.59375C6.08824 4.59771 7.08414 3.84411 8.23438 3.4375C9.3846 3.03093 10.6327 2.9912 11.8066 3.32324C12.7929 3.60223 13.6853 4.13336 14.4004 4.8584C15.1156 4.13316 16.0087 3.60228 16.9951 3.32324Z" fill="#FF1659" stroke="white"/>
<path d="M31.3945 3.32324C32.5684 2.99124 33.8166 3.0309 34.9668 3.4375C36.117 3.84412 37.1129 4.59767 37.8174 5.59375C38.5218 6.58985 38.9003 7.77997 38.9004 9C38.9004 12.6559 36.2925 15.6419 34.0645 17.5625L34.0635 17.5645C32.6505 18.7717 31.1159 19.829 29.4854 20.7207L29.4785 20.7246L29.4619 20.7324L29.3555 20.7979H29.3213C29.1563 20.865 28.9797 20.9011 28.8008 20.9014C28.5753 20.9016 28.3529 20.8472 28.1533 20.7422V20.7412L28.1426 20.7363L28.1396 20.7344L28.1221 20.7246L28.1162 20.7217C27.6335 20.459 27.159 20.1811 26.6943 19.8877C25.587 19.191 24.5317 18.4144 23.5371 17.5645L23.5352 17.5625C21.3086 15.642 18.7002 12.6558 18.7002 9L18.7051 8.77148C18.7494 7.63189 19.1228 6.52755 19.7832 5.59375C20.4877 4.59771 21.4836 3.84411 22.6338 3.4375C23.784 3.03093 25.0321 2.9912 26.2061 3.32324C27.1923 3.60223 28.0847 4.13336 28.7998 4.8584C29.515 4.13316 30.4081 3.60228 31.3945 3.32324Z" fill="#FF1659" stroke="white"/>
</svg>
