<svg width="24" height="24" viewBox="9 9 21 21" fill="none" xmlns="http://www.w3.org/2000/svg">
<path d="M19.1836 26.6975L19.1776 26.6939L19.1548 26.6819C18.6813 26.4242 18.2162 26.1513 17.7604 25.8635C16.6736 25.1797 15.6381 24.4177 14.662 23.5835C12.454 21.6791 10 18.8219 10 15.3995C10.0001 14.2828 10.3464 13.1937 10.9911 12.282C11.6359 11.3703 12.5474 10.6809 13.6002 10.3087C14.653 9.93658 15.7953 9.89994 16.8698 10.2039C17.9443 10.5078 18.8981 11.1374 19.6 12.0059C20.3019 11.1374 21.2557 10.5078 22.3302 10.2039C23.4047 9.89994 24.547 9.93658 25.5998 10.3087C26.6526 10.6809 27.5641 11.3703 28.2089 12.282C28.8536 13.1937 29.1999 14.2828 29.2 15.3995C29.2 18.8219 26.7472 21.6791 24.538 23.5835C23.1512 24.7684 21.6456 25.8067 20.0452 26.6819L20.0224 26.6939L20.0164 26.6975H20.014C19.8865 26.765 19.7444 26.8004 19.6001 26.8007C19.4559 26.8009 19.3137 26.7659 19.186 26.6987L19.1836 26.6975Z" fill="#FF1659"/>
</svg>
