<svg width="24" height="24" viewBox="0 0 24 24" fill="none" xmlns="http://www.w3.org/2000/svg">
<path fill-rule="evenodd" clip-rule="evenodd" d="M11.6276 22.7195L11.6312 22.7207C11.8676 22.8239 11.9996 22.7999 11.9996 22.7999C11.9996 22.7999 12.1316 22.8239 12.3692 22.7207L12.3716 22.7195L12.3788 22.7159L12.4004 22.7063C12.5143 22.6534 12.6268 22.5974 12.7376 22.5383C12.9608 22.4231 13.2728 22.2503 13.646 22.0187C14.39 21.5579 15.38 20.8595 16.3748 19.9007C18.362 17.9855 20.3996 14.9915 20.3996 10.7999C20.3996 9.6968 20.1823 8.6045 19.7602 7.58536C19.3381 6.56623 18.7193 5.64022 17.9393 4.86021C17.1593 4.08019 16.2333 3.46145 15.2141 3.03931C14.195 2.61717 13.1027 2.3999 11.9996 2.3999C10.8965 2.3999 9.8042 2.61717 8.78507 3.03931C7.76593 3.46145 6.83992 4.08019 6.05991 4.86021C5.2799 5.64022 4.66116 6.56623 4.23902 7.58536C3.81688 8.6045 3.59961 9.6968 3.59961 10.7999C3.59961 14.9903 5.63721 17.9855 7.62561 19.9007C8.45811 20.7003 9.37233 21.4102 10.3532 22.0187C10.7331 22.2546 11.124 22.4725 11.5244 22.6715L11.5988 22.7063L11.6204 22.7159L11.6276 22.7195ZM11.9996 13.4999C12.7157 13.4999 13.4024 13.2154 13.9088 12.7091C14.4151 12.2027 14.6996 11.516 14.6996 10.7999C14.6996 10.0838 14.4151 9.39706 13.9088 8.89071C13.4024 8.38437 12.7157 8.0999 11.9996 8.0999C11.2835 8.0999 10.5968 8.38437 10.0904 8.89071C9.58407 9.39706 9.29961 10.0838 9.29961 10.7999C9.29961 11.516 9.58407 12.2027 10.0904 12.7091C10.5968 13.2154 11.2835 13.4999 11.9996 13.4999Z" fill="#FFB1C8"/>
</svg>
