<svg width="29" height="26" viewBox="0 0 29 26" fill="none" xmlns="http://www.w3.org/2000/svg">
<path d="M13.7754 25.0462L13.7664 25.0408L13.7322 25.0228C13.0219 24.6364 12.3243 24.227 11.6406 23.7952C10.0105 22.7695 8.45715 21.6265 6.993 20.3752C3.681 17.5186 0 13.2328 0 8.09923C0.000158973 6.42426 0.519569 4.79053 1.48671 3.42299C2.45385 2.05545 3.82116 1.02137 5.40036 0.463119C6.97957 -0.0951291 8.693 -0.150083 10.3047 0.305824C11.9165 0.761732 13.3472 1.70608 14.4 3.00883C15.4528 1.70608 16.8835 0.761732 18.4953 0.305824C20.107 -0.150083 21.8204 -0.0951291 23.3996 0.463119C24.9788 1.02137 26.3461 2.05545 27.3133 3.42299C28.2804 4.79053 28.7998 6.42426 28.8 8.09923C28.8 13.2328 25.1208 17.5186 21.807 20.3752C19.7268 22.1526 17.4684 23.7101 15.0678 25.0228L15.0336 25.0408L15.0246 25.0462H15.021C14.8297 25.1476 14.6167 25.2007 14.4002 25.201C14.1838 25.2013 13.9705 25.1488 13.779 25.048L13.7754 25.0462Z" fill="#CF4FA9"/>
</svg>
