<svg width="36" height="36" viewBox="0 0 36 36" fill="none" xmlns="http://www.w3.org/2000/svg">
<path d="M21.8227 4.74451C23.6334 4.23231 25.5592 4.2941 27.3334 4.92126C29.1074 5.54847 30.6434 6.71023 31.7299 8.24646C32.8164 9.7828 33.3996 11.6187 33.3998 13.5004C33.3996 19.1008 29.4114 23.6445 26.06 26.5336L26.057 26.5365C23.9245 28.3586 21.6089 29.9553 19.1479 31.3011L19.141 31.3051L19.1332 31.309L19.1166 31.3168L18.9018 31.4467H18.8334C18.5686 31.5483 18.2866 31.6015 18.0014 31.6019C17.6291 31.6024 17.2628 31.5125 16.932 31.3422V31.3431L16.9281 31.3412L16.894 31.3246L16.8783 31.3148L16.8666 31.309L16.8539 31.3021C16.1247 30.9054 15.4084 30.4846 14.7065 30.0414V30.0404C13.0361 28.9893 11.4441 27.8187 9.94376 26.5365L9.93985 26.5336C6.59062 23.6449 2.60019 19.1009 2.60001 13.5004L2.60684 13.1478C2.67505 11.3901 3.25137 9.6868 4.26993 8.24646C5.35647 6.71009 6.89322 5.54843 8.66739 4.92126C10.4415 4.29417 12.3665 4.23233 14.1772 4.74451C15.6174 5.15195 16.9278 5.90766 17.9994 6.93591C19.0711 5.9074 20.3822 5.15204 21.8227 4.74451Z" fill="#A62D82" stroke="white" stroke-width="2"/>
</svg>
