<svg width="24" height="24" viewBox="0 0 24 24" fill="none" xmlns="http://www.w3.org/2000/svg">
<path fill-rule="evenodd" clip-rule="evenodd" d="M7.72032 12.5302C7.57987 12.3895 7.50098 12.1989 7.50098 12.0002C7.50098 11.8014 7.57987 11.6108 7.72032 11.4702L15.2203 3.97015C15.289 3.89647 15.3718 3.83736 15.4638 3.79637C15.5558 3.75538 15.6551 3.73334 15.7558 3.73156C15.8565 3.72979 15.9565 3.74831 16.0499 3.78603C16.1433 3.82375 16.2281 3.8799 16.2994 3.95112C16.3706 4.02233 16.4267 4.10717 16.4644 4.20056C16.5022 4.29394 16.5207 4.39397 16.5189 4.49468C16.5171 4.59538 16.4951 4.69469 16.4541 4.78669C16.4131 4.87869 16.354 4.96149 16.2803 5.03015L9.31032 12.0002L16.2803 18.9702C16.354 19.0388 16.4131 19.1216 16.4541 19.2136C16.4951 19.3056 16.5171 19.4049 16.5189 19.5056C16.5207 19.6063 16.5022 19.7064 16.4644 19.7998C16.4267 19.8931 16.3706 19.978 16.2994 20.0492C16.2281 20.1204 16.1433 20.1766 16.0499 20.2143C15.9565 20.252 15.8565 20.2705 15.7558 20.2687C15.6551 20.267 15.5558 20.2449 15.4638 20.2039C15.3718 20.1629 15.289 20.1038 15.2203 20.0302L7.72032 12.5302Z" fill="#727B9B"/>
</svg>
