<svg width="33" height="33" viewBox="0 0 33 33" fill="none" xmlns="http://www.w3.org/2000/svg">
<path d="M26.9653 1.4418C26.8827 1.0349 26.6619 0.669074 26.3404 0.406309C26.019 0.143543 25.6165 0 25.2013 0C24.7861 0 24.3837 0.143543 24.0622 0.406309C23.7407 0.669074 23.5199 1.0349 23.4373 1.4418L23.0053 3.5874C22.9358 3.93593 22.7648 4.2561 22.5136 4.50756C22.2625 4.75901 21.9425 4.9305 21.5941 5.0004L19.4485 5.4288C19.0396 5.50966 18.6715 5.7299 18.4069 6.05193C18.1423 6.37396 17.9977 6.77782 17.9977 7.1946C17.9977 7.61139 18.1423 8.01525 18.4069 8.33728C18.6715 8.65931 19.0396 8.87955 19.4485 8.96041L21.5941 9.3888C21.9429 9.45839 22.2632 9.62974 22.5147 9.88122C22.7662 10.1327 22.9375 10.453 23.0071 10.8018L23.4355 12.9474C23.5164 13.3563 23.7366 13.7244 24.0586 13.989C24.3807 14.2536 24.7845 14.3982 25.2013 14.3982C25.6181 14.3982 26.0219 14.2536 26.344 13.989C26.666 13.7244 26.8862 13.3563 26.9671 12.9474L27.3955 10.8018C27.4651 10.453 27.6364 10.1327 27.8879 9.88122C28.1394 9.62974 28.4597 9.45839 28.8085 9.3888L30.9541 8.96041C31.363 8.87955 31.7311 8.65931 31.9957 8.33728C32.2603 8.01525 32.4049 7.61139 32.4049 7.1946C32.4049 6.77782 32.2603 6.37396 31.9957 6.05193C31.7311 5.7299 31.363 5.50966 30.9541 5.4288L28.8085 5.0004C28.4597 4.93082 28.1394 4.75947 27.8879 4.50799C27.6364 4.25651 27.4651 3.93617 27.3955 3.5874L26.9671 1.4418H26.9653ZM10.7095 8.42581C10.5903 8.06699 10.3611 7.75483 10.0545 7.53359C9.7479 7.31236 9.3794 7.1933 9.0013 7.1933C8.62321 7.1933 8.25471 7.31236 7.94809 7.53359C7.64148 7.75483 7.41231 8.06699 7.2931 8.42581L6.0637 12.1176C5.97537 12.383 5.8264 12.6241 5.62862 12.8219C5.43084 13.0197 5.18969 13.1687 4.9243 13.257L1.2325 14.4864C0.873689 14.6056 0.561523 14.8348 0.340292 15.1414C0.119061 15.448 0 15.8165 0 16.1946C0 16.5727 0.119061 16.9412 0.340292 17.2478C0.561523 17.5544 0.873689 17.7836 1.2325 17.9028L4.9243 19.134C5.1895 19.2222 5.43052 19.3709 5.62829 19.5683C5.82606 19.7658 5.97513 20.0066 6.0637 20.2716L7.2931 23.9634C7.41231 24.3222 7.64148 24.6344 7.94809 24.8556C8.25471 25.0768 8.62321 25.1959 9.0013 25.1959C9.3794 25.1959 9.7479 25.0768 10.0545 24.8556C10.3611 24.6344 10.5903 24.3222 10.7095 23.9634L11.9389 20.2716C12.0272 20.0062 12.1762 19.7651 12.374 19.5673C12.5718 19.3695 12.8129 19.2205 13.0783 19.1322L16.7701 17.9028C17.1289 17.7836 17.4411 17.5544 17.6623 17.2478C17.8835 16.9412 18.0026 16.5727 18.0026 16.1946C18.0026 15.8165 17.8835 15.448 17.6623 15.1414C17.4411 14.8348 17.1289 14.6056 16.7701 14.4864L13.0783 13.257C12.8129 13.1687 12.5718 13.0197 12.374 12.8219C12.1762 12.6241 12.0272 12.383 11.9389 12.1176L10.7113 8.42581H10.7095ZM23.3095 22.8258C23.1903 22.467 22.9611 22.1548 22.6545 21.9336C22.3479 21.7124 21.9794 21.5933 21.6013 21.5933C21.2232 21.5933 20.8547 21.7124 20.5481 21.9336C20.2415 22.1548 20.0123 22.467 19.8931 22.8258L19.5619 23.8176C19.4737 24.0828 19.3251 24.3238 19.1276 24.5216C18.9301 24.7194 18.6894 24.8684 18.4243 24.957L17.4325 25.2864C17.0737 25.4056 16.7615 25.6348 16.5403 25.9414C16.3191 26.248 16.2 26.6165 16.2 26.9946C16.2 27.3727 16.3191 27.7412 16.5403 28.0478C16.7615 28.3544 17.0737 28.5836 17.4325 28.7028L18.4243 29.0322C18.6897 29.1205 18.9308 29.2695 19.1286 29.4673C19.3264 29.6651 19.4754 29.9062 19.5637 30.1716L19.8931 31.1634C20.0123 31.5222 20.2415 31.8344 20.5481 32.0556C20.8547 32.2768 21.2232 32.3959 21.6013 32.3959C21.9794 32.3959 22.3479 32.2768 22.6545 32.0556C22.9611 31.8344 23.1903 31.5222 23.3095 31.1634L23.6407 30.1716C23.7289 29.9064 23.8776 29.6654 24.075 29.4676C24.2725 29.2699 24.5132 29.1208 24.7783 29.0322L25.7701 28.7028C26.1289 28.5836 26.4411 28.3544 26.6623 28.0478C26.8835 27.7412 27.0026 27.3727 27.0026 26.9946C27.0026 26.6165 26.8835 26.248 26.6623 25.9414C26.4411 25.6348 26.1289 25.4056 25.7701 25.2864L24.7783 24.9552C24.5131 24.8671 24.2721 24.7184 24.0743 24.5209C23.8766 24.3235 23.7275 24.0827 23.6389 23.8176L23.3095 22.8258Z" fill="#F3B984"/>
</svg>
